<svg width="1928" height="1088" viewBox="0 0 1928 1088" fill="none" xmlns="http://www.w3.org/2000/svg">
<g filter="url(#filter0_d)">
<rect x="4" width="1920" height="1080" fill="url(#paint0_radial)"/>
<g opacity="0.5">
<path d="M53.3848 997.748H54.832C55.2617 997.748 55.6562 997.686 56.0156 997.561C56.3789 997.436 56.6914 997.26 56.9531 997.033C57.2148 996.803 57.418 996.527 57.5625 996.207C57.707 995.887 57.7793 995.531 57.7793 995.141C57.7793 994.73 57.707 994.361 57.5625 994.033C57.418 993.705 57.2148 993.426 56.9531 993.195C56.6914 992.965 56.3789 992.787 56.0156 992.662C55.6562 992.537 55.2617 992.473 54.832 992.469H51.9785V1001H53.3848V997.748ZM53.3848 996.6V993.617H54.832C55.0703 993.617 55.2832 993.656 55.4707 993.734C55.6621 993.809 55.8242 993.914 55.957 994.051C56.0898 994.188 56.1895 994.35 56.2559 994.537C56.3262 994.721 56.3613 994.926 56.3613 995.152C56.3613 995.359 56.3262 995.551 56.2559 995.727C56.1895 995.902 56.0898 996.055 55.957 996.184C55.8242 996.312 55.6621 996.414 55.4707 996.488C55.2832 996.559 55.0703 996.596 54.832 996.6H53.3848ZM58.8574 997.771V997.895C58.8574 998.359 58.9238 998.787 59.0566 999.178C59.1895 999.568 59.3828 999.908 59.6367 1000.2C59.8867 1000.49 60.1953 1000.71 60.5625 1000.88C60.9297 1001.04 61.3457 1001.12 61.8105 1001.12C62.2715 1001.12 62.6836 1001.04 63.0469 1000.88C63.4141 1000.71 63.7227 1000.49 63.9727 1000.2C64.2227 999.908 64.4141 999.568 64.5469 999.178C64.6797 998.787 64.7461 998.359 64.7461 997.895V997.771C64.7461 997.311 64.6797 996.885 64.5469 996.494C64.4141 996.1 64.2227 995.758 63.9727 995.469C63.7188 995.18 63.4082 994.953 63.041 994.789C62.6777 994.625 62.2637 994.543 61.7988 994.543C61.334 994.543 60.9199 994.625 60.5566 994.789C60.1934 994.953 59.8867 995.18 59.6367 995.469C59.3828 995.758 59.1895 996.1 59.0566 996.494C58.9238 996.885 58.8574 997.311 58.8574 997.771ZM60.2578 997.895V997.771C60.2578 997.494 60.2871 997.229 60.3457 996.975C60.4082 996.721 60.502 996.498 60.627 996.307C60.7559 996.115 60.916 995.963 61.1074 995.85C61.3027 995.736 61.5332 995.68 61.7988 995.68C62.0684 995.68 62.2988 995.736 62.4902 995.85C62.6855 995.963 62.8457 996.115 62.9707 996.307C63.0957 996.498 63.1895 996.721 63.252 996.975C63.3145 997.229 63.3457 997.494 63.3457 997.771V997.895C63.3457 998.18 63.3145 998.449 63.252 998.703C63.1934 998.957 63.1016 999.18 62.9766 999.371C62.8516 999.562 62.6914 999.715 62.4961 999.828C62.3008 999.938 62.0723 999.992 61.8105 999.992C61.541 999.992 61.3086 999.938 61.1133 999.828C60.918 999.715 60.7559 999.562 60.627 999.371C60.502 999.18 60.4082 998.957 60.3457 998.703C60.2871 998.449 60.2578 998.18 60.2578 997.895ZM66.8496 1001H68.0391L68.8418 997.402L68.9824 996.617L69.1289 997.402L69.9492 1001H71.1387L72.3633 994.66H71.0918L70.5234 998.527L70.4121 999.301L70.2773 998.533L69.4512 994.66H68.5312L67.7051 998.545L67.5762 999.277L67.4766 998.545L66.8906 994.66H65.625L66.8496 1001ZM76.4883 1001.12C77.1055 1001.12 77.6309 1001 78.0645 1000.75C78.502 1000.51 78.8262 1000.24 79.0371 999.934L78.2871 999.207C78.0918 999.457 77.8438 999.65 77.543 999.787C77.2422 999.92 76.918 999.986 76.5703 999.986C76.3164 999.986 76.082 999.943 75.8672 999.857C75.6562 999.771 75.4727 999.65 75.3164 999.494C75.1602 999.346 75.0371 999.178 74.9473 998.99C74.8574 998.803 74.791 998.57 74.748 998.293V998.264H79.1426V997.66C79.1426 997.207 79.082 996.789 78.9609 996.406C78.8398 996.023 78.6602 995.693 78.4219 995.416C78.1836 995.143 77.8887 994.93 77.5371 994.777C77.1855 994.621 76.7812 994.543 76.3242 994.543C75.9141 994.543 75.5273 994.621 75.1641 994.777C74.8047 994.93 74.4883 995.148 74.2148 995.434C73.9414 995.719 73.7266 996.062 73.5703 996.465C73.4141 996.867 73.3359 997.316 73.3359 997.812V998.053C73.3359 998.486 73.4102 998.891 73.5586 999.266C73.7109 999.637 73.9258 999.959 74.2031 1000.23C74.4805 1000.51 74.8125 1000.73 75.1992 1000.88C75.5898 1001.04 76.0195 1001.12 76.4883 1001.12ZM76.3184 995.68C76.5527 995.68 76.7578 995.721 76.9336 995.803C77.1133 995.881 77.2617 995.986 77.3789 996.119C77.5 996.256 77.5938 996.416 77.6602 996.6C77.7266 996.779 77.7598 996.961 77.7598 997.145V997.238H74.7773C74.8203 996.996 74.8867 996.779 74.9766 996.588C75.0664 996.396 75.1777 996.232 75.3105 996.096C75.4434 995.963 75.5938 995.861 75.7617 995.791C75.9336 995.717 76.1191 995.68 76.3184 995.68ZM85.1191 994.543C84.6816 994.543 84.2812 994.645 83.918 994.848C83.5586 995.051 83.25 995.33 82.9922 995.686L82.9863 995.539L82.9277 994.66H81.6152V1001H83.0156V997.086C83.0898 996.898 83.1816 996.732 83.291 996.588C83.4004 996.443 83.5332 996.324 83.6895 996.23C83.834 996.133 84 996.061 84.1875 996.014C84.375 995.967 84.5859 995.943 84.8203 995.943C85.0273 995.943 85.2344 995.955 85.4414 995.979C85.6523 996.002 85.8652 996.037 86.0801 996.084L86.2793 994.701C86.1582 994.658 85.9902 994.621 85.7754 994.59C85.5645 994.559 85.3457 994.543 85.1191 994.543ZM90.9023 1001.12C91.5195 1001.12 92.0449 1001 92.4785 1000.75C92.916 1000.51 93.2402 1000.24 93.4512 999.934L92.7012 999.207C92.5059 999.457 92.2578 999.65 91.957 999.787C91.6562 999.92 91.332 999.986 90.9844 999.986C90.7305 999.986 90.4961 999.943 90.2812 999.857C90.0703 999.771 89.8867 999.65 89.7305 999.494C89.5742 999.346 89.4512 999.178 89.3613 998.99C89.2715 998.803 89.2051 998.57 89.1621 998.293V998.264H93.5566V997.66C93.5566 997.207 93.4961 996.789 93.375 996.406C93.2539 996.023 93.0742 995.693 92.8359 995.416C92.5977 995.143 92.3027 994.93 91.9512 994.777C91.5996 994.621 91.1953 994.543 90.7383 994.543C90.3281 994.543 89.9414 994.621 89.5781 994.777C89.2188 994.93 88.9023 995.148 88.6289 995.434C88.3555 995.719 88.1406 996.062 87.9844 996.465C87.8281 996.867 87.75 997.316 87.75 997.812V998.053C87.75 998.486 87.8242 998.891 87.9727 999.266C88.125 999.637 88.3398 999.959 88.6172 1000.23C88.8945 1000.51 89.2266 1000.73 89.6133 1000.88C90.0039 1001.04 90.4336 1001.12 90.9023 1001.12ZM90.7324 995.68C90.9668 995.68 91.1719 995.721 91.3477 995.803C91.5273 995.881 91.6758 995.986 91.793 996.119C91.9141 996.256 92.0078 996.416 92.0742 996.6C92.1406 996.779 92.1738 996.961 92.1738 997.145V997.238H89.1914C89.2344 996.996 89.3008 996.779 89.3906 996.588C89.4805 996.396 89.5918 996.232 89.7246 996.096C89.8574 995.963 90.0078 995.861 90.1758 995.791C90.3477 995.717 90.5332 995.68 90.7324 995.68ZM94.9629 997.783V997.906C94.9629 998.363 95.0215 998.789 95.1387 999.184C95.2559 999.574 95.4219 999.912 95.6367 1000.2C95.8516 1000.49 96.1133 1000.71 96.4219 1000.88C96.7305 1001.04 97.0781 1001.12 97.4648 1001.12C97.832 1001.12 98.1562 1001.05 98.4375 1000.92C98.7188 1000.78 98.9609 1000.59 99.1641 1000.34L99.2285 1001H100.5V992H99.0996V995.252C98.8965 995.025 98.6621 994.852 98.3965 994.73C98.1348 994.605 97.8281 994.543 97.4766 994.543C97.0859 994.543 96.7344 994.623 96.4219 994.783C96.1133 994.939 95.8516 995.16 95.6367 995.445C95.418 995.73 95.25 996.072 95.1328 996.471C95.0195 996.865 94.9629 997.303 94.9629 997.783ZM96.3633 997.906V997.783C96.3633 997.498 96.3906 997.23 96.4453 996.98C96.5 996.727 96.5859 996.504 96.7031 996.312C96.8203 996.121 96.9707 995.971 97.1543 995.861C97.3418 995.752 97.5664 995.697 97.8281 995.697C98.1406 995.697 98.3984 995.768 98.6016 995.908C98.8086 996.045 98.9746 996.23 99.0996 996.465V999.189C98.9746 999.428 98.8086 999.617 98.6016 999.758C98.3945 999.895 98.1328 999.963 97.8164 999.963C97.5586 999.963 97.3379 999.91 97.1543 999.805C96.9707 999.695 96.8203 999.547 96.7031 999.359C96.5859 999.172 96.5 998.953 96.4453 998.703C96.3906 998.453 96.3633 998.188 96.3633 997.906ZM109.518 1001H112.471C112.893 1001 113.283 1000.95 113.643 1000.84C114.006 1000.73 114.318 1000.57 114.58 1000.36C114.842 1000.15 115.047 999.896 115.195 999.588C115.344 999.279 115.416 998.922 115.412 998.516C115.412 998.285 115.379 998.066 115.312 997.859C115.25 997.648 115.156 997.457 115.031 997.285C114.91 997.125 114.76 996.982 114.58 996.857C114.4 996.729 114.184 996.631 113.93 996.564V996.553C114.102 996.482 114.252 996.404 114.381 996.318C114.514 996.229 114.633 996.125 114.738 996.008C114.887 995.848 115 995.664 115.078 995.457C115.16 995.246 115.203 995.02 115.207 994.777C115.207 994.379 115.131 994.035 114.979 993.746C114.83 993.453 114.623 993.213 114.357 993.025C114.092 992.838 113.777 992.699 113.414 992.609C113.051 992.516 112.662 992.469 112.248 992.469H109.518V1001ZM110.936 997.145H112.553C112.783 997.148 112.988 997.184 113.168 997.25C113.348 997.312 113.5 997.402 113.625 997.52C113.75 997.637 113.844 997.779 113.906 997.947C113.969 998.111 114 998.301 114 998.516C114 998.719 113.961 998.904 113.883 999.072C113.809 999.236 113.701 999.375 113.561 999.488C113.432 999.598 113.275 999.684 113.092 999.746C112.908 999.809 112.705 999.84 112.482 999.84H110.936V997.145ZM110.936 996.072V993.635H112.266C112.508 993.639 112.729 993.668 112.928 993.723C113.127 993.773 113.293 993.857 113.426 993.975C113.543 994.068 113.633 994.189 113.695 994.338C113.762 994.482 113.795 994.654 113.795 994.854C113.795 995.041 113.76 995.207 113.689 995.352C113.619 995.496 113.523 995.619 113.402 995.721C113.27 995.834 113.105 995.92 112.91 995.979C112.719 996.037 112.508 996.068 112.277 996.072H110.936ZM117.568 1003.56C117.877 1003.56 118.146 1003.51 118.377 1003.4C118.607 1003.29 118.807 1003.16 118.975 1003C119.143 1002.84 119.281 1002.67 119.391 1002.48C119.504 1002.3 119.598 1002.12 119.672 1001.96L122.889 994.66H121.336L119.807 998.551L119.543 999.23L119.326 998.533L117.75 994.66H116.209L118.91 1000.72L118.512 1001.47C118.469 1001.56 118.422 1001.64 118.371 1001.72C118.324 1001.8 118.262 1001.89 118.184 1001.99C118.102 1002.09 118.006 1002.18 117.896 1002.26C117.787 1002.34 117.664 1002.38 117.527 1002.38C117.465 1002.38 117.383 1002.38 117.281 1002.37C117.184 1002.37 117.096 1002.36 117.018 1002.36L116.824 1003.46C116.938 1003.48 117.057 1003.51 117.182 1003.53C117.307 1003.55 117.436 1003.56 117.568 1003.56Z" fill="white"/>
<path d="M52.1021 1029.78C51.9596 1029.15 51.9675 1027.03 52.1179 1026.48C52.6639 1026.36 53.2415 1026.5 53.8113 1026.38C53.93 1026.1 53.8904 1025.81 53.8904 1025.55C53.8904 1022.77 53.8904 1020.01 53.8904 1017.23C53.8904 1016.58 53.8904 1015.92 53.8904 1015.27C53.8904 1015.04 53.8746 1014.82 53.8667 1014.58C53.2811 1014.35 52.6718 1014.58 52.1179 1014.42C51.9834 1013.85 51.9675 1011.79 52.1021 1011.07C52.2524 1011.06 52.4186 1011.02 52.5768 1011.02C55.3306 1011.02 58.0923 1011.03 60.8539 1011.05C62.2229 1011.06 63.4811 1011.42 64.5652 1012.31C65.673 1013.22 66.3219 1014.4 66.5514 1015.83C66.6543 1016.47 66.6463 1017.14 66.5435 1017.78C66.4089 1018.66 66.037 1019.41 65.3802 1020.01C65.2378 1020.14 65.0954 1020.27 64.9213 1020.44C65.0875 1020.59 65.222 1020.73 65.3723 1020.85C66.3219 1021.66 66.7809 1022.69 66.7967 1023.95C66.8125 1025.56 66.3298 1026.98 65.2378 1028.15C64.3753 1029.08 63.2991 1029.61 62.0647 1029.77C61.6294 1029.82 61.1784 1029.85 60.7353 1029.85C58.1002 1029.86 55.4572 1029.86 52.8222 1029.85C52.5768 1029.86 52.3236 1029.91 52.1021 1029.78ZM58.0131 1026.38C58.1318 1026.4 58.2031 1026.43 58.2743 1026.43C59.1368 1026.44 59.9993 1026.42 60.8619 1026.44C61.4395 1026.45 61.851 1026.19 62.1754 1025.73C62.5711 1025.17 62.6977 1024.55 62.6186 1023.87C62.484 1022.72 61.7877 1022.07 60.6482 1022.05C59.9123 1022.05 59.1685 1022.05 58.4325 1022.05C58.2901 1022.05 58.1477 1022.09 58.0211 1022.1C57.8786 1022.72 57.8786 1025.7 58.0131 1026.38ZM58.0131 1018.67C58.9785 1018.67 59.9123 1018.68 60.846 1018.66C61.3129 1018.65 61.6848 1018.39 61.9697 1018.02C62.6898 1017.07 62.5711 1015.67 61.6927 1014.87C61.4079 1014.6 61.0755 1014.47 60.6878 1014.48C59.8965 1014.49 59.1131 1014.48 58.3218 1014.49C58.211 1014.49 58.0923 1014.53 57.9973 1014.54C57.8786 1015.25 57.8865 1017.95 58.0131 1018.67Z" fill="white"/>
<path d="M145.192 1030.16C145.184 1029.79 145.168 1029.52 145.168 1029.25C145.168 1027.26 145.168 1025.27 145.168 1023.28C145.168 1022.98 145.168 1022.68 145.136 1022.38C145.002 1021.3 144.195 1020.56 143.142 1020.5C142.185 1020.45 141.417 1020.84 140.784 1021.55C140.65 1021.71 140.563 1021.88 140.571 1022.09C140.578 1022.27 140.571 1022.45 140.571 1022.62C140.571 1024.84 140.571 1027.05 140.571 1029.27C140.571 1029.53 140.618 1029.82 140.515 1030.07C139.953 1030.2 137.461 1030.21 136.748 1030.1C136.582 1029.85 136.646 1029.57 136.646 1029.3C136.638 1026.75 136.646 1024.21 136.646 1021.67C136.646 1021.39 136.63 1021.12 136.622 1020.81C136.424 1020.77 136.266 1020.72 136.1 1020.72C135.704 1020.7 135.316 1020.71 134.913 1020.7C134.707 1020.12 134.826 1019.56 134.81 1019.02C134.794 1018.5 134.818 1017.97 134.818 1017.42C134.976 1017.38 135.087 1017.33 135.205 1017.33C136.859 1017.32 138.505 1017.32 140.159 1017.33C140.278 1017.33 140.396 1017.38 140.523 1017.4C140.547 1017.7 140.57 1017.97 140.594 1018.31C140.776 1018.22 140.935 1018.16 141.069 1018.08C141.932 1017.5 142.881 1017.19 143.91 1017.1C144.527 1017.04 145.144 1017.1 145.746 1017.24C146.743 1017.48 147.574 1017.97 148.167 1018.85C148.207 1018.92 148.262 1018.96 148.349 1019.05C148.46 1018.97 148.586 1018.91 148.681 1018.81C149.663 1017.87 150.826 1017.28 152.163 1017.14C153.413 1017 154.624 1017.15 155.716 1017.87C156.381 1018.3 156.856 1018.89 157.148 1019.64C157.418 1020.32 157.56 1021.03 157.568 1021.77C157.584 1022.83 157.576 1023.89 157.584 1024.94C157.584 1026.4 157.584 1027.86 157.584 1029.32C157.584 1029.57 157.568 1029.82 157.56 1030.05C157.022 1030.2 154.798 1030.23 153.77 1030.12C153.572 1029.95 153.635 1029.71 153.635 1029.49C153.627 1027.83 153.635 1026.17 153.635 1024.5C153.635 1023.9 153.651 1023.29 153.619 1022.69C153.603 1022.37 153.556 1022.04 153.445 1021.74C153.176 1020.98 152.614 1020.57 151.823 1020.51C150.739 1020.41 149.916 1020.89 149.267 1021.73C149.18 1021.84 149.132 1022 149.109 1022.14C149.085 1022.34 149.101 1022.55 149.101 1022.75C149.101 1024.92 149.101 1027.08 149.101 1029.24C149.101 1029.52 149.085 1029.79 149.077 1030.1C148.412 1030.26 147.771 1030.16 147.146 1030.18C146.521 1030.19 145.904 1030.17 145.192 1030.16Z" fill="white"/>
<path d="M119.094 1030.16C117.781 1030.16 116.554 1030.16 115.336 1030.16C115.106 1029.94 115.185 1029.67 115.185 1029.43C115.177 1027.44 115.185 1025.45 115.177 1023.46C115.177 1023.19 115.193 1022.9 115.162 1022.63C115.122 1022.3 115.082 1021.97 114.956 1021.67C114.663 1020.97 114.125 1020.57 113.365 1020.51C112.416 1020.43 111.632 1020.78 110.968 1021.46C110.722 1021.7 110.612 1021.97 110.612 1022.33C110.627 1023.89 110.619 1025.45 110.619 1027.01C110.619 1027.82 110.619 1028.62 110.619 1029.43C110.619 1029.65 110.596 1029.86 110.58 1030.08C110.469 1030.12 110.398 1030.16 110.327 1030.16C109.243 1030.17 108.158 1030.17 107.074 1030.17C106.979 1030.17 106.884 1030.14 106.782 1030.12C106.647 1029.84 106.695 1029.57 106.695 1029.29C106.695 1026.74 106.695 1024.2 106.695 1021.66C106.695 1021.38 106.687 1021.11 106.679 1020.83C106.101 1020.59 105.515 1020.82 104.977 1020.65C104.835 1020.11 104.819 1018.12 104.954 1017.4C105.547 1017.26 106.156 1017.35 106.766 1017.33C107.407 1017.32 108.048 1017.32 108.689 1017.33C109.298 1017.35 109.915 1017.26 110.54 1017.4C110.572 1017.69 110.596 1017.96 110.627 1018.29C110.754 1018.25 110.865 1018.23 110.968 1018.18C111.434 1017.95 111.878 1017.68 112.36 1017.49C113.642 1016.96 114.964 1016.97 116.277 1017.37C117.52 1017.75 118.335 1018.63 118.77 1019.86C119.055 1020.65 119.134 1021.48 119.142 1022.31C119.142 1024.15 119.142 1025.99 119.142 1027.83C119.142 1028.41 119.142 1028.98 119.142 1029.57C119.142 1029.74 119.118 1029.91 119.094 1030.16Z" fill="white"/>
<path d="M165.56 1025.28C166.067 1023.97 166.581 1022.67 167.071 1021.35C167.562 1020.04 168.029 1018.71 168.496 1017.42C169.097 1017.3 171.345 1017.28 172.239 1017.38C172.357 1017.61 172.199 1017.81 172.12 1018C171.265 1020.12 170.403 1022.23 169.54 1024.35C168.559 1026.77 167.578 1029.19 166.573 1031.6C166.027 1032.91 165.426 1034.21 164.848 1035.52C164.785 1035.66 164.713 1035.79 164.642 1035.9C164.088 1036.01 161.485 1036.03 160.646 1035.95C160.614 1035.9 160.559 1035.87 160.551 1035.83C160.488 1035.34 160.504 1033.29 160.567 1032.74C160.725 1032.57 160.931 1032.62 161.121 1032.61C161.588 1032.61 162.055 1032.61 162.521 1032.59C162.569 1032.59 162.616 1032.56 162.727 1032.52C163.02 1031.77 163.329 1030.98 163.637 1030.2C163.534 1029.94 163.447 1029.7 163.352 1029.48C162.197 1026.7 161.058 1023.91 159.886 1021.14C159.459 1020.12 158.937 1019.15 158.47 1018.15C158.367 1017.93 158.272 1017.7 158.161 1017.45C158.391 1017.27 158.612 1017.34 158.826 1017.33C159.048 1017.32 159.269 1017.33 159.491 1017.33C159.736 1017.33 159.981 1017.33 160.227 1017.33C160.448 1017.33 160.67 1017.33 160.891 1017.33C161.113 1017.33 161.334 1017.33 161.556 1017.33C161.778 1017.33 161.999 1017.33 162.181 1017.33C162.474 1017.53 162.514 1017.82 162.608 1018.08C163.439 1020.26 164.27 1022.44 165.101 1024.62C165.188 1024.84 165.291 1025.06 165.378 1025.29C165.449 1025.29 165.505 1025.28 165.56 1025.28Z" fill="white"/>
<path d="M121.191 1023.68C121.191 1020.49 123.233 1017.79 126.279 1017.12C128.938 1016.54 131.288 1017.22 133.061 1019.39C134.517 1021.18 134.881 1023.27 134.303 1025.51C133.599 1028.23 131.819 1029.82 129.12 1030.35C127.854 1030.6 126.62 1030.46 125.409 1030.04C123.557 1029.4 122.355 1028.09 121.642 1026.26C121.318 1025.44 121.199 1024.57 121.191 1023.68ZM130.877 1023.58C130.869 1023.48 130.869 1023.25 130.829 1023.02C130.64 1021.84 129.967 1020.7 128.432 1020.43C127.443 1020.26 126.129 1020.5 125.346 1021.72C124.602 1022.88 124.626 1024.68 125.449 1025.77C126.762 1027.53 128.827 1027.28 129.864 1026.27C130.576 1025.59 130.877 1024.71 130.877 1023.58Z" fill="white"/>
<path d="M104.653 1024.33C104.637 1025.38 104.17 1026.91 103.07 1028.2C102.168 1029.26 101.037 1029.92 99.7073 1030.26C98.3779 1030.59 97.0643 1030.54 95.7666 1030.13C93.907 1029.56 92.6093 1028.32 91.8575 1026.5C91.1137 1024.71 91.0899 1022.88 91.81 1021.07C92.9179 1018.27 95.7587 1016.63 98.7815 1016.98C102.247 1017.39 104.677 1020.23 104.653 1024.33ZM94.9436 1023.69C94.9515 1024.87 95.3947 1025.81 96.3442 1026.53C97.3492 1027.3 99.4462 1027.33 100.443 1025.72C101.045 1024.74 101.147 1023.69 100.855 1022.6C100.53 1021.39 99.7627 1020.64 98.5441 1020.44C97.4204 1020.24 96.0831 1020.57 95.3472 1021.95C95.0623 1022.48 94.9357 1023.07 94.9436 1023.69Z" fill="white"/>
<path d="M89.3095 1018.1C89.444 1018.67 89.4598 1020.94 89.3253 1021.69C89.2066 1021.71 89.0642 1021.75 88.9217 1021.75C88.1067 1021.76 87.2995 1021.75 86.4845 1021.76C86.1917 1021.77 85.9701 1021.67 85.7723 1021.46C85.4479 1021.1 85.068 1020.82 84.6091 1020.67C83.889 1020.44 83.1531 1020.37 82.4251 1020.57C81.4518 1020.82 80.8108 1021.5 80.4547 1022.45C80.1936 1023.15 80.1619 1023.88 80.3202 1024.61C80.6209 1026.02 81.8791 1027.09 83.2955 1027.1C84.253 1027.11 85.068 1026.7 85.6853 1025.95C85.9068 1025.68 86.0888 1025.39 86.2867 1025.11C86.8168 1025.14 88.621 1025.62 89.5389 1025.97C89.5152 1026.1 89.5152 1026.24 89.4677 1026.37C89.0246 1027.53 88.3282 1028.5 87.3154 1029.18C84.9889 1030.75 82.5438 1030.96 80.0353 1029.7C78.3973 1028.88 77.3686 1027.49 76.8622 1025.72C76.3478 1023.92 76.4349 1022.13 77.3211 1020.45C78.4606 1018.29 80.2648 1017.13 82.6625 1016.97C84.0631 1016.87 85.4162 1017.09 86.6427 1017.85C86.9118 1018.02 87.1888 1018.07 87.4894 1018.06C87.9326 1018.05 88.3757 1018.05 88.8188 1018.06C88.985 1018.04 89.1512 1018.08 89.3095 1018.1Z" fill="white"/>
<path d="M70.8324 1030.13C70.6899 1029.84 70.7374 1029.56 70.7374 1029.29C70.7374 1026.75 70.7374 1024.2 70.7374 1021.67C70.7374 1021.39 70.7295 1021.12 70.7216 1020.81C70.5238 1020.78 70.3576 1020.73 70.1993 1020.73C69.7879 1020.71 69.3764 1020.71 68.957 1020.7C68.7829 1020.32 68.862 1019.96 68.8541 1019.61C68.8383 1019.23 68.8462 1018.86 68.8541 1018.48C68.862 1018.13 68.8145 1017.78 68.9174 1017.4C69.5346 1017.26 70.1439 1017.35 70.7533 1017.33C71.3467 1017.32 71.9323 1017.33 72.5258 1017.33C73.143 1017.33 73.7523 1017.33 74.4091 1017.33C74.4408 1017.54 74.4961 1017.7 74.4961 1017.87C74.5041 1018.77 74.5041 1019.68 74.5041 1020.58C74.5041 1023.48 74.5041 1026.37 74.5041 1029.27C74.5041 1029.53 74.5436 1029.82 74.4328 1030.12C74.0451 1030.23 73.6494 1030.16 73.2696 1030.18C72.8502 1030.19 72.4308 1030.19 72.0114 1030.18C71.6079 1030.17 71.2122 1030.21 70.8324 1030.13Z" fill="white"/>
<path d="M74.8206 1013.22C74.8048 1014.44 73.8235 1015.42 72.6366 1015.39C71.4733 1015.37 70.5475 1014.4 70.5396 1013.21C70.5317 1011.99 71.5129 1010.98 72.692 1011C73.8789 1011.01 74.8364 1012.01 74.8206 1013.22Z" fill="white"/>
</g>
</g>
<defs>
<filter id="filter0_d" x="0" y="0" width="1928" height="1088" filterUnits="userSpaceOnUse" color-interpolation-filters="sRGB">
<feFlood flood-opacity="0" result="BackgroundImageFix"/>
<feColorMatrix in="SourceAlpha" type="matrix" values="0 0 0 0 0 0 0 0 0 0 0 0 0 0 0 0 0 0 127 0"/>
<feOffset dy="4"/>
<feGaussianBlur stdDeviation="2"/>
<feColorMatrix type="matrix" values="0 0 0 0 0 0 0 0 0 0 0 0 0 0 0 0 0 0 0.25 0"/>
<feBlend mode="normal" in2="BackgroundImageFix" result="effect1_dropShadow"/>
<feBlend mode="normal" in="SourceGraphic" in2="effect1_dropShadow" result="shape"/>
</filter>
<radialGradient id="paint0_radial" cx="0" cy="0" r="1" gradientUnits="userSpaceOnUse" gradientTransform="translate(964) rotate(90) scale(1080)">
<stop stop-color="#615CCD"/>
<stop offset="1"/>
</radialGradient>
</defs>
</svg>
