<svg width="217" height="40" fill="none" xmlns="http://www.w3.org/2000/svg"><path d="M78.105 10.667v4A1.32 1.32 0 0 1 76.772 16H63.439a1.32 1.32 0 0 1-1.334-1.333v-8a1.32 1.32 0 0 0-1.333-1.334h-2.667a1.32 1.32 0 0 0-1.333 1.334v24A1.32 1.32 0 0 0 58.105 32h2.667a1.32 1.32 0 0 0 1.333-1.333v-8a1.32 1.32 0 0 1 1.334-1.334h13.333a1.32 1.32 0 0 1 1.333 1.334v8A1.32 1.32 0 0 0 79.44 32h2.666a1.32 1.32 0 0 0 1.334-1.333v-24a1.32 1.32 0 0 0-1.334-1.334H79.44a1.32 1.32 0 0 0-1.334 1.334v4ZM152.772 10.667h-4a1.32 1.32 0 0 1-1.333-1.334v-8A1.32 1.32 0 0 0 146.105 0h-2.666a1.32 1.32 0 0 0-1.334 1.333v29.334A1.32 1.32 0 0 0 143.439 32h2.666a1.32 1.32 0 0 0 1.334-1.333V17.333A1.32 1.32 0 0 1 148.772 16h8a1.32 1.32 0 0 1 1.333 1.333v13.334A1.32 1.32 0 0 0 159.439 32h2.666a1.32 1.32 0 0 0 1.334-1.333V12a1.32 1.32 0 0 0-1.334-1.333h-9.333ZM179.439 10.667h-9.334A1.32 1.32 0 0 0 168.772 12V30.667A1.32 1.32 0 0 0 170.105 32h18.667a1.32 1.32 0 0 0 1.333-1.333V28a1.32 1.32 0 0 0-1.333-1.333h-13.333a1.32 1.32 0 0 1-1.334-1.334A1.32 1.32 0 0 1 175.439 24h13.333a1.32 1.32 0 0 0 1.333-1.333V12a1.32 1.32 0 0 0-1.333-1.333h-9.333Zm5.333 6.666a1.32 1.32 0 0 1-1.333 1.334h-8a1.32 1.32 0 0 1-1.334-1.334A1.32 1.32 0 0 1 175.439 16h8a1.32 1.32 0 0 1 1.333 1.333ZM211.438 10.667h-14.666A1.32 1.32 0 0 0 195.438 12v18.667A1.32 1.32 0 0 0 196.772 32h2.666a1.32 1.32 0 0 0 1.334-1.333V17.333A1.32 1.32 0 0 1 202.105 16h8a1.32 1.32 0 0 1 1.333 1.333v13.334A1.32 1.32 0 0 0 212.772 32h2.666a1.32 1.32 0 0 0 1.334-1.333V12a1.32 1.32 0 0 0-1.334-1.333h-4ZM104.771 16v9.333a1.32 1.32 0 0 1-1.333 1.334h-8a1.32 1.32 0 0 1-1.333-1.334V12a1.32 1.32 0 0 0-1.334-1.333h-2.666A1.32 1.32 0 0 0 88.77 12v18.667A1.32 1.32 0 0 0 90.106 32h13.333a1.32 1.32 0 0 1 1.333 1.333 1.32 1.32 0 0 1-1.333 1.334h-8A1.32 1.32 0 0 0 94.105 36v2.667A1.32 1.32 0 0 0 95.438 40h13.333a1.32 1.32 0 0 0 1.334-1.333V12a1.32 1.32 0 0 0-1.334-1.333h-2.666A1.32 1.32 0 0 0 104.771 12v4ZM126.106 10.667h-9.334A1.32 1.32 0 0 0 115.439 12v26.667A1.32 1.32 0 0 0 116.772 40h2.667a1.32 1.32 0 0 0 1.333-1.333v-5.334A1.32 1.32 0 0 1 122.106 32h13.333a1.32 1.32 0 0 0 1.333-1.333V12a1.32 1.32 0 0 0-1.333-1.333h-9.333Zm5.333 10.666v4a1.32 1.32 0 0 1-1.333 1.334h-8a1.32 1.32 0 0 1-1.334-1.334v-8A1.32 1.32 0 0 1 122.106 16h8a1.32 1.32 0 0 1 1.333 1.333v4Z" fill="#000"/><path d="M14.105 22.667v2.666a1.32 1.32 0 0 1-1.333 1.334h-2.667a1.32 1.32 0 0 1-1.333-1.334V12a1.32 1.32 0 0 1 1.333-1.333h.773c1.2 0 1.787-1.44.934-2.267L7.065 3.6a1.32 1.32 0 0 0-1.893 0L.398 8.4c-.853.827-.24 2.267.934 2.267h.773A1.32 1.32 0 0 1 3.438 12v18.667A1.32 1.32 0 0 0 4.772 32h13.333a1.32 1.32 0 0 0 1.333-1.333v-8a1.32 1.32 0 0 0-1.333-1.334h-2.667c-.72 0-1.333.587-1.333 1.334Z" fill="#615CCD"/><path d="M31.438 26.667a1.32 1.32 0 0 1-1.333-1.334V6.667a1.32 1.32 0 0 0-1.333-1.334H15.438a1.32 1.32 0 0 0-1.333 1.334v8A1.32 1.32 0 0 0 15.438 16h2.667a1.32 1.32 0 0 0 1.333-1.333V12a1.32 1.32 0 0 1 1.334-1.333h2.666A1.32 1.32 0 0 1 24.772 12v13.333a1.32 1.32 0 0 1-1.334 1.334h-.773c-1.2 0-1.787 1.44-.933 2.266l4.773 4.774a1.32 1.32 0 0 0 1.893 0l4.774-4.774c.826-.826.24-2.266-.934-2.266h-.8Z" fill="#615CCD"/></svg>