<svg width="21" height="18" fill="none" xmlns="http://www.w3.org/2000/svg"><path d="M16.033 5.501c-.374-.213-.855-.213-1.282 0L11.76 7.264 9.73 8.386l-2.938 1.762c-.374.214-.854.214-1.282 0L3.214 8.76a1.302 1.302 0 0 1-.641-1.122v-2.67c0-.428.213-.855.64-1.122L5.51 2.51c.374-.213.855-.213 1.282 0L9.09 3.9c.374.213.64.64.64 1.12v1.763l2.03-1.175V3.792c0-.427-.213-.854-.64-1.121L6.846.16c-.374-.214-.855-.214-1.282 0l-4.38 2.563c-.427.214-.641.641-.641 1.068v5.021c0 .427.214.855.64 1.122l4.327 2.51c.374.214.855.214 1.282 0l2.938-1.71 2.03-1.174 2.937-1.71c.374-.213.855-.213 1.282 0l2.297 1.336c.374.214.64.64.64 1.122v2.67c0 .428-.213.855-.64 1.122l-2.243 1.335c-.374.214-.855.214-1.282 0l-2.297-1.335a1.302 1.302 0 0 1-.641-1.122V11.27l-2.03 1.175v1.763c0 .427.214.854.641 1.121l4.327 2.51c.374.214.854.214 1.282 0l4.326-2.51c.374-.213.64-.64.64-1.121V9.134c0-.428-.213-.855-.64-1.122l-4.326-2.51Z" fill="#fff"/></svg>