<svg width="47" height="25" viewBox="0 0 47 25" fill="none" xmlns="http://www.w3.org/2000/svg">
<path d="M43.9727 8.27051L39.0286 0.524027C38.8235 0.205055 38.459 0 38.0717 0H35.0414C34.1301 0 33.5833 1.00249 34.0845 1.77713L38.5273 8.49834C39.0286 9.25021 38.4818 10.2755 37.5704 10.2755H1.13919C0.501243 10.2755 0 10.7767 0 11.4147V13.5336C0 14.1715 0.501243 14.6727 1.13919 14.6727H37.3654C38.2767 14.6727 38.8235 15.6752 38.3223 16.4499L33.8567 23.1483C33.3554 23.9002 33.9022 24.9254 34.8136 24.9254H37.8666C38.2539 24.9254 38.6185 24.7204 38.8235 24.4014L43.9727 16.3815C43.9954 16.3587 43.9954 16.336 44.0182 16.336L46.4105 13.0095C46.7067 12.6222 46.7067 12.0754 46.4105 11.6653L44.0182 8.36164C43.9954 8.29329 43.9727 8.27051 43.9727 8.27051Z" fill="white"/>
</svg>
